<svg xmlns="http://www.w3.org/2000/svg" width="400" height="400" viewBox="0 0 400 400">
  <rect width="400" height="400" fill="#0b1020"/>
  <g fill="none" stroke="#a78bfa" stroke-opacity="0.35" stroke-width="1">
    <path d="M0 40h400M0 80h400M0 120h400M0 160h400M0 200h400M0 240h400M0 280h400M0 320h400M0 360h400"/>
    <path d="M40 0v400M80 0v400M120 0v400M160 0v400M200 0v400M240 0v400M280 0v400M320 0v400M360 0v400"/>
  </g>
  <rect x="120" y="120" width="160" height="160" fill="none" stroke="#a78bfa" stroke-width="3" rx="8"/>
  <text x="200" y="210" text-anchor="middle" fill="#a1a1aa" font-family="system-ui,sans-serif" font-size="18">>żī¶</text>
  <text x="200" y="238" text-anchor="middle" fill="#52525b" font-family="system-ui,sans-serif" font-size="12"> b:×■G</text>
</svg>
